<svg width="1200" height="600" viewBox="0 0 1200 600" fill="none" xmlns="http://www.w3.org/2000/svg">
  <defs>
    <linearGradient id="bg" x1="0" y1="0" x2="1" y2="1">
      <stop offset="0%" stop-color="#0f172a" />
      <stop offset="100%" stop-color="#07101f" />
    </linearGradient>
    <linearGradient id="accent" x1="0" y1="0" x2="1" y2="0">
      <stop offset="0%" stop-color="#7c3aed" />
      <stop offset="100%" stop-color="#06b6d4" />
    </linearGradient>
  </defs>
  <rect width="1200" height="600" rx="40" fill="url(#bg)" />
  <circle cx="300" cy="180" r="100" fill="rgba(255,255,255,0.08)" />
  <circle cx="450" cy="260" r="160" fill="rgba(255,255,255,0.05)" />
  <rect x="780" y="120" width="320" height="240" rx="20" fill="rgba(255,255,255,0.08)" />
  <rect x="760" y="140" width="240" height="180" rx="12" fill="rgba(255,255,255,0.15)" />
  <rect x="242" y="400" width="716" height="120" rx="20" fill="rgba(255,255,255,0.04)" />
  <path d="M920 160L980 180L960 240L900 220Z" fill="url(#accent)" opacity="0.9" />
  <path d="M870 240C870 217.49 888.49 199 911 199H975C997.51 199 1016 217.49 1016 240V321C1016 343.51 997.51 362 975 362H911C888.49 362 870 343.51 870 321V240Z" fill="rgba(255,255,255,0.08)" />
  <text x="100" y="170" fill="#f8fafc" font-family="Inter, sans-serif" font-size="64" font-weight="800">Movie</text>
  <text x="100" y="250" fill="#cbd5e1" font-family="Inter, sans-serif" font-size="38" font-weight="600">Discovery backup</text>
  <text x="100" y="310" fill="#94a3b8" font-family="Inter, sans-serif" font-size="24">Data could not load from TMDB API.</text>
  <text x="100" y="360" fill="#94a3b8" font-family="Inter, sans-serif" font-size="24">Showing fallback movie collection.</text>
  <rect x="100" y="420" width="260" height="60" rx="16" fill="url(#accent)" />
  <text x="160" y="458" fill="#ffffff" font-family="Inter, sans-serif" font-size="22" font-weight="700">Offline mode</text>
  <circle cx="820" cy="170" r="36" fill="rgba(255,255,255,0.15)" />
  <circle cx="820" cy="170" r="18" fill="rgba(255,255,255,0.4)" />
</svg>
